<svg xmlns="http://www.w3.org/2000/svg" width="320" height="180" viewBox="0 0 320 180" role="img" aria-labelledby="title desc">
  <title id="title">Review Fetcher プレースホルダー</title>
  <desc id="desc">口コミ取得ツールのサムネイル</desc>
  <defs>
    <linearGradient id="bg" x1="0" x2="1" y1="0" y2="1">
      <stop offset="0" stop-color="#0f172a"/>
      <stop offset="1" stop-color="#111827"/>
    </linearGradient>
  </defs>
  <rect width="320" height="180" rx="18" fill="url(#bg)"/>
  <g transform="translate(32 34)" fill="none" stroke="#6bc8ff" stroke-width="3" stroke-linecap="round">
    <rect x="0" y="0" width="200" height="112" rx="12" stroke="#243144" stroke-width="2" fill="#141b26"/>
    <rect x="16" y="18" width="168" height="20" rx="6" fill="#0f172a"/>
    <rect x="16" y="52" width="112" height="14" rx="6" fill="#0f172a"/>
    <rect x="16" y="74" width="152" height="14" rx="6" fill="#0f172a"/>
    <circle cx="184" cy="62" r="12" stroke="#ffd166" fill="none"/>
    <path d="M178 62h12" stroke="#ffd166" stroke-width="2"/>
  </g>
  <g transform="translate(210 36)">
    <rect x="0" y="0" width="82" height="82" rx="16" fill="#1e2937" stroke="#6bc8ff" stroke-width="3"/>
    <path d="M18 48c10-18 20-18 30 0" fill="none" stroke="#6bc8ff" stroke-width="3" stroke-linecap="round"/>
    <circle cx="27" cy="28" r="5" fill="#6bc8ff"/>
    <circle cx="53" cy="28" r="5" fill="#6bc8ff"/>
  </g>
  <text x="26" y="164" fill="#e5e7eb" font-family="'Manrope','Noto Sans JP',sans-serif" font-size="18" font-weight="700">Review Fetcher</text>
</svg>
