<svg xmlns="http://www.w3.org/2000/svg" width="320" height="180" viewBox="0 0 320 180">
  <defs>
    <linearGradient id="bgGradient" x1="0%" y1="0%" x2="100%" y2="100%">
      <stop offset="0%" stop-color="#0f172a" />
      <stop offset="100%" stop-color="#1e293b" />
    </linearGradient>
  </defs>
  <rect width="320" height="180" fill="url(#bgGradient)" />
  <g opacity="0.12">
    <rect x="40" y="24" width="16" height="16" fill="#94a3b8" />
    <rect x="240" y="12" width="16" height="16" fill="#94a3b8" />
    <rect x="280" y="64" width="16" height="16" fill="#94a3b8" />
    <rect x="200" y="136" width="16" height="16" fill="#94a3b8" />
    <rect x="96" y="88" width="16" height="16" fill="#94a3b8" />
  </g>
  <g transform="translate(70,50)">
    <rect x="0" y="32" width="24" height="24" fill="#38bdf8" />
    <rect x="24" y="32" width="24" height="24" fill="#38bdf8" />
    <rect x="48" y="32" width="24" height="24" fill="#38bdf8" />
    <rect x="72" y="32" width="24" height="24" fill="#38bdf8" />

    <rect x="128" y="48" width="24" height="24" fill="#c084fc" />
    <rect x="152" y="48" width="24" height="24" fill="#c084fc" />
    <rect x="176" y="48" width="24" height="24" fill="#c084fc" />
    <rect x="152" y="24" width="24" height="24" fill="#c084fc" />

    <rect x="32" y="92" width="24" height="24" fill="#f97316" />
    <rect x="32" y="68" width="24" height="24" fill="#f97316" />
    <rect x="32" y="44" width="24" height="24" fill="#f97316" />
    <rect x="56" y="44" width="24" height="24" fill="#f97316" />

    <rect x="144" y="100" width="24" height="24" fill="#4ade80" />
    <rect x="168" y="100" width="24" height="24" fill="#4ade80" />
    <rect x="168" y="76" width="24" height="24" fill="#4ade80" />
    <rect x="192" y="76" width="24" height="24" fill="#4ade80" />
  </g>
  <text x="160" y="164" font-family="monospace" font-size="18" text-anchor="middle" fill="#e2e8f0">
    Tetris Remix
  </text>
</svg>
