<svg xmlns="http://www.w3.org/2000/svg" width="320" height="180" viewBox="0 0 320 180" role="img" aria-labelledby="title desc">
  <title id="title">Tier List Maker サムネイル</title>
  <desc id="desc">色分けされたS〜E行とドラッグアイコンのミニマルなティア表アイコン</desc>
  <defs>
    <linearGradient id="bg" x1="0" x2="1" y1="0" y2="1">
      <stop offset="0" stop-color="#0b111b"/>
      <stop offset="1" stop-color="#111827"/>
    </linearGradient>
    <filter id="shadow" x="-20%" y="-20%" width="140%" height="140%">
      <feDropShadow dx="0" dy="4" stdDeviation="6" flood-color="#000" flood-opacity="0.35"/>
    </filter>
  </defs>
  <rect width="320" height="180" rx="20" fill="url(#bg)"/>
  <g transform="translate(22 22)" filter="url(#shadow)">
    <rect x="0" y="0" width="276" height="136" rx="14" fill="#161b24" stroke="#2b3444" stroke-width="1.5"/>
    <g font-family="'Manrope','Noto Sans JP',sans-serif" font-size="13" font-weight="800" fill="#0f0f0f">
      <g>
        <rect x="10" y="10" width="256" height="18" rx="6" fill="#ff6b6b"/>
        <text x="22" y="23">S</text>
      </g>
      <g>
        <rect x="10" y="34" width="256" height="18" rx="6" fill="#ffb347"/>
        <text x="22" y="47">A</text>
      </g>
      <g>
        <rect x="10" y="58" width="256" height="18" rx="6" fill="#ffe066"/>
        <text x="22" y="71">B</text>
      </g>
      <g>
        <rect x="10" y="82" width="256" height="18" rx="6" fill="#cbe86b"/>
        <text x="22" y="95">C</text>
      </g>
      <g>
        <rect x="10" y="106" width="256" height="18" rx="6" fill="#9ee493"/>
        <text x="22" y="119">D</text>
      </g>
    </g>
    <g transform="translate(210 16)">
      <rect x="0" y="0" width="44" height="44" rx="10" fill="#0f172a" stroke="#6bc8ff" stroke-width="2"/>
      <path d="M10 16h24M10 22h18M10 28h12" stroke="#e5e7eb" stroke-width="2.4" stroke-linecap="round"/>
      <path d="M32 8l6 6-6 6" fill="none" stroke="#6bc8ff" stroke-width="2.4" stroke-linecap="round" stroke-linejoin="round"/>
    </g>
  </g>
  <text x="24" y="166" font-family="'Manrope','Noto Sans JP',sans-serif" font-size="18" font-weight="700" fill="#e5e7eb">Tier List Maker</text>
</svg>
