<svg xmlns="http://www.w3.org/2000/svg" width="320" height="180" viewBox="0 0 320 180" role="img" aria-labelledby="title desc">
  <title id="title">Tier List Maker プレースホルダー</title>
  <desc id="desc">Tier表を作成するツールのサムネイル</desc>
  <defs>
    <linearGradient id="bg" x1="0" x2="1" y1="0" y2="1">
      <stop offset="0" stop-color="#0f172a"/>
      <stop offset="1" stop-color="#111827"/>
    </linearGradient>
    <linearGradient id="glow" x1="0" x2="1" y1="0" y2="1">
      <stop offset="0" stop-color="#6bc8ff" stop-opacity="0.35"/>
      <stop offset="1" stop-color="#ff6b6b" stop-opacity="0.35"/>
    </linearGradient>
  </defs>
  <rect width="320" height="180" rx="22" fill="url(#bg)"/>
  <rect x="14" y="12" width="292" height="156" rx="18" fill="url(#glow)" opacity="0.2"/>
  <g font-family="'Noto Sans JP', 'Manrope', sans-serif" font-size="18" font-weight="800">
    <rect x="28" y="24" width="264" height="18" rx="6" fill="#ff6b6b" opacity="0.9"/>
    <rect x="28" y="48" width="264" height="18" rx="6" fill="#ffb347" opacity="0.9"/>
    <rect x="28" y="72" width="264" height="18" rx="6" fill="#ffe066" opacity="0.9"/>
    <rect x="28" y="96" width="264" height="18" rx="6" fill="#cbe86b" opacity="0.9"/>
    <rect x="28" y="120" width="264" height="18" rx="6" fill="#a8e6cf" opacity="0.9"/>
    <rect x="28" y="144" width="264" height="18" rx="6" fill="#9ee493" opacity="0.9"/>
    <text x="40" y="38" fill="#0f172a">S</text>
    <text x="40" y="62" fill="#0f172a">A</text>
    <text x="40" y="86" fill="#0f172a">B</text>
    <text x="40" y="110" fill="#0f172a">C</text>
    <text x="40" y="134" fill="#0f172a">D</text>
    <text x="40" y="158" fill="#0f172a">E</text>
  </g>
  <text x="160" y="104" text-anchor="middle" font-size="32" font-family="'Noto Sans JP', 'Manrope', sans-serif" fill="#e5e7eb" font-weight="700">Tier List</text>
  <text x="160" y="132" text-anchor="middle" font-size="14" fill="#cbd5e1">Drag & Drop</text>
</svg>
