<?xml version="1.0" encoding="UTF-8"?>
<svg width="320" height="180" viewBox="0 0 320 180" fill="none" xmlns="http://www.w3.org/2000/svg">
  <defs>
    <radialGradient id="vj-bg" cx="0" cy="0" r="1" gradientUnits="userSpaceOnUse" gradientTransform="translate(160 40) rotate(90) scale(160 200)">
      <stop offset="0" stop-color="#4c1d95"/>
      <stop offset="0.4" stop-color="#1d4ed8"/>
      <stop offset="1" stop-color="#020617"/>
    </radialGradient>
    <linearGradient id="vj-ring" x1="160" y1="60" x2="160" y2="140" gradientUnits="userSpaceOnUse">
      <stop offset="0" stop-color="#c084fc"/>
      <stop offset="1" stop-color="#38bdf8"/>
    </linearGradient>
  </defs>
  <rect width="320" height="180" rx="24" fill="url(#vj-bg)"/>
  <circle cx="160" cy="90" r="64" fill="#0f172a" opacity="0.65"/>
  <circle cx="160" cy="90" r="54" stroke="url(#vj-ring)" stroke-width="10" fill="transparent" opacity="0.9"/>
  <circle cx="160" cy="90" r="38" fill="#0ea5e9" opacity="0.15"/>
  <circle cx="160" cy="90" r="26" fill="#c026d3" opacity="0.3"/>
  <path d="M160 52C184 52 204 72 204 96C204 120 184 140 160 140C136 140 116 120 116 96C116 72 136 52 160 52Z" stroke="#e879f9" stroke-width="4" stroke-dasharray="6 8" opacity="0.9"/>
  <path d="M108 90C136 70 184 70 212 90" stroke="#38bdf8" stroke-width="6" stroke-linecap="round" opacity="0.65"/>
  <path d="M112 108C140 124 180 124 208 108" stroke="#f97316" stroke-width="6" stroke-linecap="round" opacity="0.55"/>
  <circle cx="120" cy="74" r="6" fill="#facc15"/>
  <circle cx="196" cy="68" r="8" fill="#38bdf8" opacity="0.85"/>
  <circle cx="132" cy="124" r="5" fill="#f97316" opacity="0.8"/>
  <circle cx="188" cy="118" r="7" fill="#4ade80" opacity="0.7"/>
</svg>
